<svg width="512" height="512" viewBox="0 0 512 512" fill="none" xmlns="http://www.w3.org/2000/svg">
<circle cx="256" cy="256" r="256" fill="#18191A"/>
<path d="M97.9677 257.045C91.1437 257.228 84.3678 255.855 78.1531 253.03C72.8809 250.535 68.2219 246.911 64.5071 242.414C61.0092 238.175 58.3187 233.331 56.569 228.121C54.9141 223.318 54.0466 218.278 54 213.197V210.628C54.0015 205.252 54.8903 199.914 56.6306 194.828C58.3772 189.664 61.1097 184.888 64.6765 180.765C68.4235 176.476 73.0589 173.053 78.2609 170.734C84.2943 168.136 90.8159 166.866 97.3833 167.011C104.533 166.896 111.614 168.412 118.09 171.442C123.984 174.194 129.033 178.473 132.715 183.835C136.397 189.197 138.577 195.447 139.028 201.936H126.721C124.351 201.936 122.018 201.352 119.927 200.236C117.837 199.12 116.054 197.505 114.737 195.535C114.441 195.088 114.123 194.657 113.783 194.243C111.931 192.023 109.572 190.282 106.906 189.166C103.872 187.92 100.616 187.308 97.3371 187.366C94.2379 187.318 91.1625 187.915 88.3064 189.12C85.6982 190.227 83.3816 191.922 81.5375 194.074C79.6441 196.336 78.2167 198.95 77.3377 201.766C75.4092 208.472 75.4092 215.585 77.3377 222.29C78.2271 225.164 79.6987 227.825 81.6607 230.106C83.5553 232.276 85.9314 233.972 88.599 235.06C91.5653 236.231 94.733 236.806 97.9215 236.752C102.838 236.911 107.681 235.522 111.767 232.783C113.485 231.601 114.967 230.109 116.137 228.383C117.458 226.467 119.229 224.905 121.294 223.832C123.359 222.759 125.655 222.209 127.982 222.229H140.29C139.62 228.603 137.357 234.707 133.709 239.977C130.06 245.247 125.144 249.513 119.414 252.384C112.747 255.649 105.388 257.248 97.9677 257.045V257.045Z" fill="white"/>
<path d="M198.308 200.83C195.774 196.874 192.06 193.817 187.692 192.091C182.327 190.006 176.6 189.012 170.847 189.168C168.508 189.168 165.955 189.168 163.155 189.291C160.355 189.414 157.739 189.475 155.17 189.645C152.601 189.814 150.386 189.952 148.524 190.106V207.83L157.262 207.368C160.447 207.214 163.493 207.091 166.37 207.014C169.247 206.937 171.416 206.891 172.893 206.891C175.97 206.891 178.231 207.614 179.6 209.061C181.056 210.846 181.782 213.116 181.631 215.415H171.493C166.248 215.331 161.021 216.036 155.986 217.507C151.89 218.648 148.206 220.939 145.37 224.107C142.697 227.407 141.328 231.573 141.524 235.816C141.415 239.704 142.447 243.539 144.493 246.847C146.504 249.936 149.362 252.382 152.724 253.893C156.494 255.587 160.592 256.428 164.724 256.355C168.663 256.478 172.572 255.632 176.108 253.893C179.185 252.262 185.139 254.708 185.139 254.708H201.984V215.645C202.187 210.458 200.912 205.32 198.308 200.83V200.83ZM180.046 237.754C179.262 239.25 178.016 240.454 176.493 241.185C174.934 241.874 173.243 242.216 171.539 242.185C169.127 242.343 166.747 241.566 164.893 240.016C164.12 239.298 163.512 238.422 163.108 237.447C162.705 236.473 162.516 235.423 162.555 234.369C162.506 233.296 162.69 232.225 163.093 231.229C163.497 230.233 164.111 229.336 164.893 228.6C166.747 227.049 169.127 226.272 171.539 226.43H181.693V231.046C181.645 233.356 181.082 235.627 180.046 237.692V237.754Z" fill="white"/>
<path d="M236.03 256.814C226.707 256.814 219.364 254.891 214 251.045C211.382 249.202 209.235 246.768 207.736 243.939C206.236 241.111 205.425 237.968 205.369 234.767H223.969C224.177 235.813 224.607 236.803 225.231 237.668C225.855 238.533 226.658 239.254 227.584 239.783C230.268 241.337 233.349 242.07 236.445 241.89C238.852 241.943 241.245 241.525 243.491 240.66C244.359 240.403 245.119 239.87 245.657 239.143C246.196 238.416 246.483 237.533 246.476 236.629C246.468 235.814 246.249 235.015 245.839 234.311C245.429 233.607 244.842 233.022 244.138 232.613C242.579 231.588 239.743 230.87 235.63 230.459L231.199 229.982C222.994 229.141 216.928 226.89 213 223.228C211.103 221.481 209.601 219.349 208.595 216.974C207.59 214.599 207.104 212.037 207.169 209.459C207.001 205.269 208.235 201.143 210.677 197.735C213.173 194.544 216.531 192.136 220.353 190.796C224.877 189.175 229.657 188.388 234.461 188.473C243.086 188.473 250.045 190.355 255.337 194.119C257.932 195.967 260.049 198.409 261.51 201.24C262.971 204.071 263.735 207.211 263.737 210.397H245.076C244.721 208.394 243.587 206.612 241.922 205.443C239.651 203.937 236.949 203.218 234.23 203.397C232.189 203.315 230.162 203.755 228.338 204.674C227.653 204.996 227.075 205.508 226.671 206.149C226.268 206.79 226.056 207.532 226.061 208.289C226.028 209.036 226.214 209.777 226.597 210.419C226.98 211.062 227.542 211.578 228.215 211.905C230.407 212.891 232.756 213.484 235.153 213.659L239.584 214.12C247.788 214.982 254.147 217.259 258.66 220.951C260.825 222.689 262.557 224.905 263.721 227.425C264.885 229.945 265.448 232.7 265.367 235.475C265.47 239.572 264.222 243.589 261.814 246.906C259.193 250.265 255.671 252.81 251.66 254.245C246.653 256.056 241.354 256.927 236.03 256.814V256.814Z" fill="white"/>
<path d="M339.197 207.953C337.934 204.156 335.931 200.648 333.305 197.629C330.756 194.729 327.606 192.419 324.074 190.86C320.282 189.228 316.187 188.416 312.059 188.475C306.936 188.475 298.137 189.614 294.183 191.906C290.229 194.198 270.307 190.368 270.307 190.368V278.063H291.537V255.816C291.537 255.163 291.713 254.522 292.045 253.961C292.378 253.399 292.855 252.936 293.427 252.622C293.999 252.308 294.645 252.153 295.298 252.173C295.95 252.194 296.585 252.389 297.137 252.739C297.737 253.141 298.358 253.511 298.998 253.847C303.089 255.886 307.612 256.905 312.182 256.816C316.448 256.896 320.681 256.062 324.597 254.37C328.139 252.788 331.271 250.414 333.751 247.431C336.295 244.334 338.199 240.762 339.351 236.923C340.63 232.673 341.258 228.253 341.212 223.815V221.015C341.266 216.579 340.585 212.166 339.197 207.953ZM318.259 231.154C317.172 233.582 315.437 235.664 313.244 237.169C311.052 238.62 308.472 239.371 305.844 239.323C303.451 239.307 301.095 238.728 298.967 237.631C296.706 236.509 294.776 234.817 293.368 232.723C291.855 230.448 291.081 227.761 291.152 225.03V221.076C291.066 218.21 291.791 215.379 293.244 212.907C294.56 210.737 296.436 208.962 298.675 207.768C300.887 206.612 303.348 206.015 305.844 206.03C308.476 205.961 311.071 206.668 313.305 208.061C315.451 209.477 317.165 211.457 318.259 213.784C319.531 216.501 320.153 219.477 320.074 222.476C320.12 225.468 319.5 228.432 318.259 231.154Z" fill="white"/>
<path d="M378.538 257.047C373.575 257.138 368.648 256.184 364.077 254.247C360.039 252.503 356.42 249.917 353.462 246.662C347.77 240.364 344.613 232.181 344.601 223.692V221.353C344.585 217.074 345.357 212.829 346.878 208.829C348.348 204.885 350.563 201.261 353.401 198.152C356.325 194.98 359.884 192.459 363.846 190.752C368.261 188.858 373.027 187.919 377.83 187.998C384.026 187.79 390.148 189.394 395.445 192.613C400.185 195.637 404.014 199.891 406.522 204.922C409.104 210.082 410.422 215.783 410.368 221.553V228.369H353.447V216.937H398.061L390.723 222.076C390.772 218.931 390.25 215.804 389.184 212.845C388.367 210.525 386.858 208.512 384.861 207.076C382.733 205.69 380.229 204.997 377.692 205.091C375.129 205.03 372.6 205.697 370.4 207.014C368.257 208.419 366.606 210.457 365.677 212.845C364.501 215.996 363.947 219.345 364.046 222.707C363.984 225.853 364.506 228.983 365.585 231.938C366.456 234.376 368.07 236.48 370.2 237.954C372.655 239.447 375.499 240.176 378.369 240.046C380.883 240.131 383.381 239.603 385.646 238.508C387.413 237.639 388.834 236.196 389.676 234.415H409.03C408.148 238.691 406.249 242.692 403.492 246.077C400.674 249.549 397.08 252.31 392.999 254.139C388.442 256.13 383.511 257.121 378.538 257.047V257.047Z" fill="white"/>
<path d="M417.001 254.708V190.337L433.739 194.521C433.739 194.521 448.354 189.336 455.431 189.336H458V207.599H453.108C448.354 207.599 444.693 208.876 442.077 211.445C439.462 214.014 438.17 217.707 438.17 222.522V254.708H417.001Z" fill="white"/>
<path d="M89.2913 282.606C85.5449 281.171 81.5472 280.487 77.5304 280.592C75.8308 280.592 74.131 280.592 72.1935 280.592C70.2559 280.592 68.4034 280.726 66.6188 280.844C64.8342 280.961 63.2197 281.045 61.979 281.163V293.383C63.8315 293.265 65.8542 293.164 68.0806 293.064C70.3071 292.963 72.4315 292.879 74.437 292.812C76.4425 292.745 77.955 292.812 78.9918 292.812C79.8342 292.731 80.6845 292.82 81.4909 293.074C82.2974 293.328 83.0431 293.741 83.6826 294.289C84.6864 295.526 85.1893 297.088 85.0934 298.67H78.0229C74.3615 298.616 70.7126 299.103 67.1968 300.114C64.3371 300.899 61.7652 302.478 59.7865 304.663C57.9161 306.943 56.9605 309.822 57.1014 312.753C57.0224 315.429 57.7435 318.068 59.1749 320.341C60.5728 322.471 62.5606 324.161 64.9022 325.208C67.5425 326.369 70.4086 326.942 73.298 326.887C76.043 326.978 78.7689 326.402 81.2353 325.208C83.3768 324.084 87.5407 325.779 87.5407 325.779H99.2676V298.922C99.4139 295.343 98.5236 291.797 96.7012 288.699C94.9375 285.953 92.346 283.822 89.2913 282.606V282.606ZM83.9544 314.046C83.4053 315.077 82.5355 315.907 81.4731 316.413C80.4049 316.886 79.2444 317.121 78.0739 317.101C76.3924 317.217 74.7304 316.688 73.4341 315.624C72.8789 315.134 72.4389 314.53 72.1453 313.854C71.8517 313.179 71.7115 312.448 71.7345 311.713C71.7096 310.968 71.8486 310.226 72.142 309.539C72.4354 308.852 72.8763 308.237 73.4341 307.734C74.7304 306.67 76.3924 306.141 78.0739 306.257H85.1444V309.379C85.1243 311.006 84.7164 312.604 83.9544 314.046V314.046Z" fill="white"/>
<path d="M120.933 283.231L109.574 281.223V325.867H123.978V303.537C123.83 302.141 123.989 300.728 124.443 299.404C124.898 298.079 125.637 296.876 126.605 295.883C127.574 294.89 128.747 294.133 130.039 293.667C131.33 293.201 132.708 293.038 134.069 293.19H137.361V280.581H135.633C130.81 280.581 120.933 283.231 120.933 283.231Z" fill="white"/>
<path d="M206.366 281.887C203.849 280.28 200.909 279.471 197.928 279.565H197.287C194.337 279.469 191.429 280.28 188.95 281.887C186.589 283.602 184.819 286.015 183.887 288.788C183.877 288.827 183.877 288.868 183.887 288.906V288.788C182.958 286.013 181.188 283.6 178.824 281.887C176.32 280.251 173.371 279.439 170.386 279.565H169.728C166.784 279.47 163.881 280.28 161.408 281.887C159.147 283.43 155.181 281.023 155.181 281.023H143.536V325.867H158.253V300.113C158.156 298.192 158.755 296.301 159.94 294.79C160.534 294.102 161.275 293.558 162.108 293.2C162.941 292.842 163.844 292.678 164.75 292.721C165.643 292.67 166.537 292.831 167.357 293.19C168.178 293.55 168.903 294.097 169.475 294.79C170.607 296.238 171.203 298.035 171.163 299.876V325.799H185.861V300.113C185.774 298.193 186.372 296.305 187.549 294.79C188.143 294.102 188.884 293.558 189.717 293.2C190.551 292.842 191.454 292.678 192.359 292.721C193.255 292.67 194.15 292.831 194.974 293.19C195.797 293.549 196.526 294.097 197.101 294.79C198.227 296.241 198.822 298.036 198.789 299.876V325.799H213.505V300.368C213.623 296.433 213.005 292.51 211.682 288.805C210.662 286.003 208.806 283.587 206.366 281.887V281.887Z" fill="white"/>
<path d="M250.79 281.61L243.42 314.132H241.919L232.685 281.61H217.635L230.942 325.521H240.866L240.555 326.912C240.365 328.001 239.942 329.036 239.313 329.951C238.763 330.674 238.015 331.228 237.155 331.546C236.117 331.891 235.024 332.052 233.928 332.022H223.434V344.378H232.236C235.824 344.483 239.406 344.031 242.851 343.037C245.444 342.245 247.709 340.649 249.305 338.488C251.096 335.837 252.345 332.868 252.982 329.747L264.977 281.61H250.79Z" fill="white"/>
<path d="M291.735 306.312H270.123V327.925H291.735V306.312Z" fill="#FF0202"/>
</svg>
