<?xml version="1.0" encoding="UTF-8"?><svg id="Warstwa_1" xmlns="http://www.w3.org/2000/svg" xmlns:xlink="http://www.w3.org/1999/xlink" viewBox="0 0 664.97 209.34"><defs><style>.cls-1{fill:#fff;}.cls-2{fill:url(#Gradient_bez_nazwy);}</style><linearGradient id="Gradient_bez_nazwy" x1="41.56" y1="1147.89" x2="58.59" y2="1117.23" gradientTransform="translate(0 1186.16) scale(1 -1)" gradientUnits="userSpaceOnUse"><stop offset="0" stop-color="#04d7b1"/><stop offset=".73" stop-color="#aa95ff"/></linearGradient></defs><path class="cls-1" d="m465.37,88.67h-12.15c-1.41,0-2.55-1.14-2.55-2.55v-30.11c0-1.41-1.14-2.55-2.56-2.55h-17.08c-1.41,0-2.55,1.14-2.55,2.55v30.1c0,1.41-1.14,2.55-2.56,2.55h-4.36c-1.41,0-2.55,1.14-2.55,2.55v15.6c0,1.41,1.14,2.55,2.55,2.55h4.36c1.41,0,2.56,1.14,2.56,2.55v70.25c0,1.41,1.14,2.55,2.55,2.55h17.08c1.41,0,2.56-1.14,2.56-2.55v-70.23c0-1.41,1.14-2.55,2.55-2.55h12.15c1.41,0,2.55-1.14,2.55-2.55v-15.6c0-1.41-1.14-2.55-2.55-2.55h0Z"/><path class="cls-1" d="m543.74,90.53c-5.62-3.02-11.04-4.53-16.24-4.53-4.41,0-8.23.82-11.44,2.46-2.01,1.01-4.19,2.55-6.57,4.65-1.67,1.47-4.28.32-4.28-1.89,0-1.41-1.14-2.55-2.55-2.55h-17.08c-1.41,0-2.56,1.14-2.56,2.55v90.97c0,1.41,1.14,2.55,2.56,2.55h17.08c1.41,0,2.55-1.14,2.55-2.55v-47.26c0-18.28,6.05-27.42,18.15-27.42,3.27,0,6.62,1.01,10.02,3.02,1.27.76,2.92.29,3.59-1.04l7.8-15.6c.61-1.22.18-2.72-1.02-3.36h-.01Z"/><path class="cls-1" d="m658.45,169.38l-8.12-10.78v-67.38c0-1.41-1.14-2.55-2.55-2.55h-17.19c-1.41,0-2.55,1.14-2.55,2.55v2.7c0,2.16-2.53,3.37-4.17,1.97-7.82-6.6-16.46-9.9-25.92-9.9-12.95,0-23.74,4.8-32.35,14.4-8.62,9.6-12.92,21.6-12.92,36s4.3,26.89,12.92,36.69c8.68,9.6,19.67,14.4,32.95,14.4,8.97,0,17.44-3.11,25.41-9.32,1.66-1.29,4.08-.06,4.08,2.05v1.96c0,1.41,1.14,2.55,2.56,2.55h17.19c.3,0,.6-.06.88-.17h1.95c.96,0,1.84-.53,2.27-1.38l5.84-11.06c.46-.89.36-1.97-.27-2.76h0Zm-36.63-10.18c-5.06,5.66-11.71,8.48-19.92,8.48-7.7,0-14.08-2.92-19.14-8.78-4.93-5.79-7.39-13.29-7.39-22.5,0-8.61,2.53-15.85,7.6-21.7,5.12-5.79,11.51-8.68,19.14-8.68,8.09,0,14.67,2.86,19.73,8.58,5.06,5.85,7.59,13.29,7.59,22.29s-2.53,16.44-7.59,22.29h-.01Z"/><path class="cls-1" d="m326.51,88.67h-19.28c-.97,0-1.86.55-2.29,1.42l-24.51,49.37c-.92,1.86-3.57,1.9-4.55.06l-26.34-49.5c-.44-.83-1.31-1.36-2.26-1.36h-19.88c-1.95,0-3.18,2.09-2.24,3.79l41.06,74.35c.04.06.06.12.1.18l8.29,12.54-11.5,21.51c-.91,1.71.32,3.76,2.26,3.76h19.53c.96,0,1.83-.53,2.27-1.38l9.88-19.15c.46-.89.36-1.97-.27-2.76l-8.46-10.72,40.44-78.38c.88-1.71-.36-3.72-2.27-3.72Z"/><path class="cls-1" d="m178.8,86c-10.79,0-19.55,3.89-26.29,11.67-1.04,1.21-2.92,1.18-3.91-.07-6.1-7.74-14.05-11.6-23.86-11.6-4.87,0-8.92.82-12.13,2.46-1.95,1.02-4.18,2.65-6.66,4.89-1.65,1.48-4.29.35-4.29-1.87v-.26c0-1.41-1.14-2.55-2.55-2.55h-3.7c-.13-.02-.25-.06-.38-.06h-19.53c-1.93,0-3.16,2.06-2.26,3.76l6.21,19.87v69.95c0,1.41,1.14,2.55,2.55,2.55h17.08c1.41,0,2.55-1.14,2.55-2.55v-47.07c0-10.06,1.43-17.43,4.29-22.1,2.86-4.67,7.41-7.01,13.66-7.01,9.86,0,14.8,8.55,14.8,25.65v50.51c0,1.41,1.14,2.55,2.55,2.55h17.19c1.41,0,2.55-1.14,2.55-2.55v-47.07c0-10.2,1.4-17.59,4.19-22.19,2.79-4.6,7.25-6.91,13.37-6.91,5.26,0,9.04,1.94,11.34,5.82,2.23,3.82,3.36,10.33,3.36,19.54v50.81c0,1.41,1.14,2.55,2.55,2.55h17.19c1.41,0,2.55-1.14,2.55-2.55v-56.83c0-26.24-10.81-39.36-32.45-39.36h0Z"/><path class="cls-1" d="m401.74,138.08c-4.08-4.28-12-8.94-23.78-14-8.55-3.61-12.82-7.26-12.82-10.95,0-2.1.72-3.83,2.17-5.18,1.45-1.35,3.19-2.02,5.23-2.02,3.72,0,6.92,2.24,9.59,6.72.7,1.17,2.19,1.61,3.39.97l13.9-7.4c1.26-.67,1.71-2.25,1.03-3.51-5.98-11.14-14.73-16.71-26.25-16.71-8.35,0-15.45,2.73-21.31,8.19-5.73,5.46-8.58,12.36-8.58,20.72,0,6.32,1.68,11.48,5.03,15.49,2.63,3.15,7.17,6.32,13.62,9.47,2.3,1.12,4.57,2.2,6.8,3.25,2.19,1.03,4.4,2.1,6.59,3.2.07.04.15.08.22.12,5.72,3.4,8.58,7.06,8.58,10.98,0,6.84-3.75,10.26-11.25,10.26-3.75,0-6.97-1.24-9.67-3.75-1.17-1.06-2.78-3.32-4.85-6.79-.67-1.12-2.09-1.57-3.27-1.02l-14.53,6.73c-1.32.61-1.84,2.18-1.21,3.48,6.82,14.11,17.87,21.16,33.14,21.16,9.4,0,17.42-2.96,24.07-8.88,6.84-6.25,10.26-14,10.26-23.28,0-7.24-2.04-12.99-6.11-17.26v.02Z"/><path class="cls-2" d="m50.27,51.89c.07-.83.73-1.48,1.55-1.55l33.83-2.83c2.08-.17,2.08-3.22,0-3.39l-33.82-2.78c-.83-.07-1.49-.73-1.56-1.55l-2.83-33.88c-.17-2.08-3.22-2.08-3.39,0l-2.78,33.87c-.07.83-.73,1.49-1.56,1.56l-33.87,2.78c-2.08.17-2.08,3.22,0,3.39l33.88,2.83c.83.07,1.49.73,1.55,1.56l2.78,33.82c.17,2.08,3.22,2.08,3.39,0l2.83-33.83Z"/></svg>